<?xml version="1.0" encoding="UTF-8"?><svg id="Layer_1" xmlns="http://www.w3.org/2000/svg" viewBox="0 0 1000 1000"><defs><style>.cls-1{fill:#000;stroke-width:0px;}.cls-2{fill:#fff;}.cls-2,.cls-3{stroke:#000;stroke-miterlimit:10;stroke-width:10px;}.cls-3{fill:none;stroke-linecap:round;}</style></defs><path class="cls-2" d="M723.25722,594.17366c-6.06836,60.75645-28.64261,107.53138-45.2214,135.6156-4.34489,5.87428-27.23486,35.70626-67.35875,59.54278-33.71582,3.39834-70.34433,5.21885-110.97817,5.21885-40.80362,0-78.2332-1.74776-112.79853-5.17025-29.73494-17.40415-47.89142-36.58007-52.43054-41.50764-17.08858-23.5694-51.50828-78.2332-54.25119-153.69933-1.86895-51.72666,11.91833-92.38464,18.08373-108.50208,14.15145-36.91993,27.06493-45.92542,45.2214-81.36456,13.97868-27.28477,29.92982-68.0687,35.97794-124.7738.09419-.88312,1.02418-1.4244,1.82451-1.03937,12.64119,6.08149,61.10704,31.93024,79.72942,89.64571,9.65867,29.94515,7.54325,56.87004,4.02441,74.60431-.75183,3.78909,4.12887,5.97585,6.44385,2.88338,15.92456-21.27286,39.17747-60.25895,43.78294-113.65501,6.42766-74.50422-27.54571-129.22982-41.67064-148.90436-.78346-1.09127.47659-2.47496,1.6359-1.79623,42.27711,24.75175,104.44018,68.76177,157.56661,141.6708,32.74482,44.93013,103.28339,142.41213,90.4185,271.23121Z"/><path class="cls-2" d="M730.91104,774.25864c-6.05211,19.95265-10.55675,29.35156-16.78501,50.50559-.48393,1.64365-2.02714,2.74018-3.73668,2.62509-66.34683-4.46685-137.10786-7.11152-211.83123-7.08436-73.91541.02688-143.94568,2.66525-209.65323,7.09133-1.66165.11193-3.17294-.91549-3.69316-2.49756-2.96232-9.00882-6.00384-17.99245-8.82788-27.0452-2.2866-7.33005-4.5732-14.6599-7.49415-23.29353-.93305-2.75787,1.55332-5.43516,4.37306-4.7102,34.18104,8.78795,71.77863,15.35859,113.63762,19.53085,34.56533,3.42249,71.99491,5.17025,112.79853,5.17025,40.63384,0,77.26235-1.82051,110.97817-5.21885,42.4015-4.26765,80.27018-10.98611,115.88152-19.68389,2.75577-.67307,5.17586,1.89584,4.35244,4.61049Z"/><path class="cls-3" d="M456.07963,593.34845c2.30303,25.56088,28.08073,46.91093,53.40153,46.1195,26.33666-.82318,46.95463-18.65185,48.54685-46.1195"/><ellipse class="cls-1" cx="443.6395" cy="536.3059" rx="10.92304" ry="13.35038"/><ellipse class="cls-1" cx="564.09637" cy="536.3059" rx="10.92304" ry="13.35038"/></svg>